<svg xmlns="http://www.w3.org/2000/svg" width="500" height="500" viewBox="0 0 500 500" version="1.1"><path d="M 367.455 199 C 367.455 220.725, 367.587 229.612, 367.749 218.750 C 367.910 207.887, 367.910 190.112, 367.749 179.250 C 367.587 168.387, 367.455 177.275, 367.455 199 M 349.750 161.706 C 350.988 161.944, 353.012 161.944, 354.250 161.706 C 355.488 161.467, 354.475 161.272, 352 161.272 C 349.525 161.272, 348.512 161.467, 349.750 161.706 M 144.310 168.748 C 151.905 168.918, 164.055 168.918, 171.310 168.747 C 178.564 168.576, 172.350 168.437, 157.500 168.438 C 142.650 168.438, 136.714 168.578, 144.310 168.748 M 186.286 172.500 C 186.294 175.250, 186.488 176.256, 186.718 174.736 C 186.947 173.216, 186.941 170.966, 186.704 169.736 C 186.467 168.506, 186.279 169.750, 186.286 172.500 M 160.264 170.718 C 161.784 170.947, 164.034 170.941, 165.264 170.704 C 166.494 170.467, 165.250 170.279, 162.500 170.286 C 159.750 170.294, 158.744 170.488, 160.264 170.718 M 351.212 180.450 C 351.047 188.967, 350.733 191.133, 349.800 190.200 C 349.140 189.540, 348.140 189, 347.577 189 C 347.015 189, 347.584 189.721, 348.842 190.602 C 350.100 191.483, 351.341 191.992, 351.600 191.734 C 351.859 191.475, 351.925 186.366, 351.748 180.382 L 351.425 169.500 351.212 180.450 M 154.080 172.403 C 153.333 173.303, 153.037 176.797, 153.254 182.153 L 153.593 190.500 153.796 181.950 C 153.917 176.898, 154.491 172.909, 155.200 172.200 C 155.860 171.540, 156.140 171, 155.822 171 C 155.505 171, 154.721 171.631, 154.080 172.403 M 175.628 175.007 C 176.799 176.378, 178.469 178.850, 179.338 180.500 C 180.208 182.150, 180.938 183.140, 180.960 182.700 C 181.040 181.092, 178.143 176.443, 175.852 174.505 L 173.500 172.514 175.628 175.007 M 135.446 207.500 C 135.447 225.100, 135.583 232.159, 135.749 223.187 C 135.914 214.215, 135.914 199.815, 135.748 191.187 C 135.581 182.559, 135.446 189.900, 135.446 207.500 M 212 186.558 C 215.787 187.382, 221 187.522, 221 186.799 C 221 186.360, 218.637 186.052, 215.750 186.116 C 212.863 186.180, 211.175 186.379, 212 186.558 M 202.554 189.337 C 201.548 190.073, 200.976 191.310, 201.283 192.087 C 201.723 193.200, 201.859 193.160, 201.921 191.903 C 201.964 191.024, 203.012 189.817, 204.250 189.220 C 205.488 188.624, 206.024 188.105, 205.441 188.068 C 204.859 188.030, 203.559 188.602, 202.554 189.337 M 275.405 192.250 C 273.516 194.481, 273.517 194.486, 275.500 192.880 C 276.600 191.990, 278.175 191.013, 279 190.709 C 280.273 190.241, 280.259 190.146, 278.905 190.079 C 278.028 190.036, 276.453 191.012, 275.405 192.250 M 183.015 192.250 C 182.998 194.211, 185.495 194.626, 186.595 192.845 C 187.060 192.094, 186.867 191.964, 186.043 192.474 C 185.305 192.930, 184.412 192.681, 183.904 191.878 C 183.213 190.788, 183.027 190.866, 183.015 192.250 M 321.946 194.750 L 318.500 198.500 322.250 195.054 C 324.313 193.158, 326 191.471, 326 191.304 C 326 190.540, 325.154 191.260, 321.946 194.750 M 193.946 195.750 L 190.500 199.500 194.156 196.145 C 197.394 193.173, 197.867 193.002, 198.290 194.645 C 198.683 196.171, 198.789 196.101, 198.884 194.250 C 199.047 191.089, 197.913 191.433, 193.946 195.750 M 209.631 195.986 C 207.252 198.179, 204.940 199.641, 204.493 199.236 C 204.045 198.831, 204.021 199.091, 204.438 199.813 C 204.883 200.584, 204.434 201.973, 203.348 203.180 C 201.518 205.215, 201.494 205.188, 200.907 200.367 L 200.314 195.500 200.157 201.750 C 200.071 205.188, 200.114 208, 200.252 208 C 200.391 208, 204.047 204.400, 208.376 200 C 216.456 191.789, 217.375 188.848, 209.631 195.986 M 297 192.313 C 297 192.485, 298.462 193.948, 300.250 195.563 L 303.500 198.500 300.563 195.250 C 297.825 192.221, 297 191.540, 297 192.313 M 172.385 205 C 172.385 211.875, 172.545 214.688, 172.740 211.250 C 172.936 207.813, 172.936 202.188, 172.740 198.750 C 172.545 195.313, 172.385 198.125, 172.385 205 M 153.300 200 C 153.300 203.025, 153.487 204.262, 153.716 202.750 C 153.945 201.238, 153.945 198.762, 153.716 197.250 C 153.487 195.738, 153.300 196.975, 153.300 200 M 351.422 215 C 351.422 226.275, 351.568 230.887, 351.746 225.250 C 351.924 219.613, 351.924 210.387, 351.746 204.750 C 351.568 199.113, 351.422 203.725, 351.422 215 M 210 200.500 C 207.571 202.975, 205.809 205, 206.084 205 C 206.359 205, 208.571 202.975, 211 200.500 C 213.429 198.025, 215.191 196, 214.916 196 C 214.641 196, 212.429 198.025, 210 200.500 M 197.125 204.406 C 197.025 209.950, 196.542 211.921, 194.679 214.406 C 190.975 219.345, 190.443 220.706, 193.317 217.897 C 197.557 213.751, 198.962 209.316, 198.043 202.977 L 197.250 197.500 197.125 204.406 M 163.694 203.532 C 162.151 204.889, 161.285 206, 161.770 206 C 162.255 206, 163.708 204.875, 165 203.500 C 167.989 200.319, 167.328 200.335, 163.694 203.532 M 220.760 202.420 C 221.072 202.926, 220.579 203.053, 219.664 202.701 C 218.749 202.350, 218 202.525, 218 203.090 C 218 203.656, 217.595 203.868, 217.101 203.562 C 215.615 202.644, 209.978 209.779, 210.701 211.663 C 211.071 212.626, 210.930 213.075, 210.368 212.728 C 209.784 212.366, 209.417 214.253, 209.448 217.467 C 209.477 220.404, 209.886 222.569, 210.357 222.278 C 210.829 221.987, 210.927 222.655, 210.576 223.761 C 209.895 225.905, 214.465 232.449, 215.986 231.508 C 216.429 231.235, 217.048 231.684, 217.364 232.506 C 217.679 233.328, 218.558 234, 219.317 234 C 220.338 234, 220.749 232.201, 220.899 227.090 C 221.010 223.290, 220.709 219.938, 220.231 219.643 C 219.753 219.347, 219.573 220.543, 219.831 222.300 C 220.250 225.154, 220.127 225.350, 218.676 224.146 C 216.163 222.061, 215.552 216.694, 217.446 213.362 L 219.074 210.500 218.738 214.250 C 218.422 217.770, 218.573 218, 221.201 218 C 223.800 218, 224 217.714, 224 214 C 224 211.044, 223.593 210, 222.441 210 C 221.584 210, 221.160 209.550, 221.500 209 C 222.212 207.847, 228.974 207.672, 230.578 208.765 C 231.171 209.169, 231.621 211.820, 231.578 214.655 C 231.535 217.490, 231.838 219.601, 232.250 219.346 C 232.662 219.091, 233.016 216.996, 233.035 214.691 C 233.070 210.554, 233.089 210.532, 234.500 213 C 236.638 216.741, 236.293 220.556, 233.532 223.694 L 231.063 226.500 231.032 223.750 C 230.987 219.900, 229.194 220.304, 228.813 224.250 C 228.524 227.248, 228.248 227.480, 225.250 227.246 C 222.105 227.001, 222 227.116, 222 230.821 C 222 234.544, 222.097 234.648, 225.497 234.575 C 229.752 234.484, 230.226 233, 226 233 C 223.556 233, 223 232.583, 223 230.750 C 223 228.928, 223.537 228.516, 225.827 228.584 C 227.381 228.630, 229.181 228.994, 229.827 229.393 C 230.472 229.792, 231 229.679, 231 229.142 C 231 228.606, 230.438 227.940, 229.750 227.662 C 229.063 227.385, 229.443 227.122, 230.595 227.079 C 233.754 226.960, 236.177 223.607, 236.745 218.568 C 237.212 214.428, 236.962 213.762, 233.727 210.527 C 230.842 207.642, 229.456 207, 226.116 207 C 217.065 207, 212.203 216.660, 217.411 224.294 C 219.930 227.986, 220.769 231.033, 219.250 230.968 C 217.773 230.906, 215.217 228.406, 213.130 224.982 C 207.282 215.390, 214.536 203, 226 203 C 240.710 203, 246.489 222.160, 234.281 230.455 C 232.314 231.792, 231.299 233.067, 231.903 233.440 C 234.435 235.005, 242.414 227.242, 241.288 224.309 C 240.934 223.384, 241.075 222.928, 241.614 223.261 C 242.178 223.610, 242.554 221.473, 242.534 218.022 C 242.515 214.739, 242.098 212.442, 241.580 212.761 C 241.074 213.073, 240.947 212.579, 241.299 211.664 C 241.650 210.749, 241.475 210, 240.910 210 C 240.344 210, 240.118 209.619, 240.405 209.153 C 241.085 208.053, 235.575 202.758, 234.681 203.653 C 234.306 204.027, 234 203.822, 234 203.198 C 234 202.550, 233.286 202.337, 232.336 202.701 C 231.421 203.053, 230.928 202.926, 231.240 202.420 C 231.562 201.900, 229.281 201.500, 226 201.500 C 222.719 201.500, 220.438 201.900, 220.760 202.420 M 270.232 206 C 270.232 207.925, 270.438 208.713, 270.689 207.750 C 270.941 206.787, 270.941 205.213, 270.689 204.250 C 270.438 203.287, 270.232 204.075, 270.232 206 M 154.762 206.707 C 156.006 206.946, 157.806 206.937, 158.762 206.687 C 159.718 206.437, 158.700 206.241, 156.500 206.252 C 154.300 206.263, 153.518 206.468, 154.762 206.707 M 203.004 208.496 C 201.714 209.869, 200.848 211.160, 201.079 211.364 C 201.311 211.569, 202.547 210.446, 203.826 208.868 C 206.689 205.338, 206.185 205.110, 203.004 208.496 M 331.272 210 C 331.272 212.475, 331.467 213.488, 331.706 212.250 C 331.944 211.012, 331.944 208.988, 331.706 207.750 C 331.467 206.512, 331.272 207.525, 331.272 210 M 290.370 218 C 290.370 223.775, 290.535 226.137, 290.737 223.250 C 290.939 220.363, 290.939 215.637, 290.737 212.750 C 290.535 209.863, 290.370 212.225, 290.370 218 M 226.624 211.539 C 226.281 212.432, 226.039 213.914, 226.086 214.832 C 226.133 215.749, 226.568 215.173, 227.053 213.550 C 227.996 210.394, 227.662 208.832, 226.624 211.539 M 314.355 218.500 C 314.352 223.450, 314.521 225.601, 314.731 223.280 C 314.940 220.959, 314.943 216.909, 314.736 214.280 C 314.530 211.651, 314.358 213.550, 314.355 218.500 M 307.328 218.500 C 307.333 222.350, 307.513 223.802, 307.730 221.728 C 307.946 219.653, 307.943 216.503, 307.722 214.728 C 307.501 212.952, 307.324 214.650, 307.328 218.500 M 153.392 227 C 153.392 234.425, 153.549 237.463, 153.742 233.750 C 153.934 230.037, 153.934 223.963, 153.742 220.250 C 153.549 216.537, 153.392 219.575, 153.392 227 M 269.286 218.500 C 269.294 221.250, 269.488 222.256, 269.718 220.736 C 269.947 219.216, 269.941 216.966, 269.704 215.736 C 269.467 214.506, 269.279 215.750, 269.286 218.500 M 196.929 217.143 C 195.811 219.240, 195.845 219.358, 197.237 218.210 C 198.609 217.079, 198.887 217.539, 199.494 221.960 C 199.876 224.732, 200.531 227, 200.950 227 C 201.851 227, 200.076 216.889, 198.956 215.643 C 198.532 215.171, 197.620 215.846, 196.929 217.143 M 185 223.085 C 185 225.556, 186.052 228, 187.115 228 C 187.611 228, 187.478 227.137, 186.819 226.081 C 185.900 224.611, 185.895 223.832, 186.794 222.748 C 187.717 221.637, 187.650 221.333, 186.484 221.333 C 185.668 221.333, 185 222.122, 185 223.085 M 331.286 226.500 C 331.294 229.250, 331.488 230.256, 331.718 228.736 C 331.947 227.216, 331.941 224.966, 331.704 223.736 C 331.467 222.506, 331.279 223.750, 331.286 226.500 M 191.500 226 C 190.647 227.650, 190.174 229, 190.449 229 C 190.724 229, 191.647 227.650, 192.500 226 C 193.353 224.350, 193.826 223, 193.551 223 C 193.276 223, 192.353 224.350, 191.500 226 M 201.070 229.191 C 201.109 229.911, 201.527 231.400, 202 232.500 C 202.767 234.286, 202.867 234.212, 202.930 231.809 C 202.968 230.329, 202.550 228.840, 202 228.500 C 201.450 228.160, 201.032 228.471, 201.070 229.191 M 302.736 237.256 L 300.971 240.500 302.986 238.139 C 304.700 236.130, 305.616 233.984, 304.750 234.006 C 304.613 234.010, 303.706 235.472, 302.736 237.256 M 256.791 237.500 C 258.758 241.296, 267.346 247.987, 268.618 246.716 C 268.863 246.470, 267.682 245.697, 265.992 244.997 C 264.302 244.297, 261.308 241.874, 259.337 239.612 C 257.367 237.350, 256.221 236.400, 256.791 237.500 M 204.071 237.500 C 204.071 238.050, 204.714 239.625, 205.500 241 C 206.286 242.375, 206.929 243.050, 206.929 242.500 C 206.929 241.950, 206.286 240.375, 205.500 239 C 204.714 237.625, 204.071 236.950, 204.071 237.500 M 237 242.184 C 234.525 244.441, 233.400 245.811, 234.500 245.229 C 236.381 244.235, 242.881 237.952, 241.937 238.041 C 241.697 238.064, 239.475 239.928, 237 242.184 M 287 239.879 C 287 240.545, 285.849 242.241, 284.443 243.648 C 283.037 245.054, 282.447 246.018, 283.132 245.789 C 284.933 245.189, 288.490 240.156, 287.683 239.350 C 287.307 238.974, 287 239.212, 287 239.879 M 347.616 240.813 C 346.802 241.627, 344.418 242.625, 342.318 243.031 C 338.673 243.737, 338.641 243.775, 341.615 243.885 C 343.402 243.951, 345.855 243.115, 347.368 241.925 C 350.240 239.666, 350.584 239.978, 351.307 245.500 C 351.584 247.611, 351.745 247.142, 351.850 243.917 C 352.011 239.003, 350.519 237.910, 347.616 240.813 M 207.936 245.326 C 209.183 246.913, 209.183 247.279, 207.936 248.121 C 206.843 248.858, 207.097 249.043, 209 248.896 C 210.375 248.790, 212.245 249.026, 213.155 249.422 C 214.065 249.817, 216.315 249.956, 218.155 249.730 C 221.197 249.357, 221.119 249.306, 217.285 249.160 C 214.138 249.041, 212.788 248.472, 211.954 246.914 C 211.340 245.767, 210.578 245.088, 210.261 245.406 C 209.944 245.723, 208.968 245.424, 208.092 244.741 C 206.668 243.631, 206.652 243.693, 207.936 245.326 M 139.750 246.737 C 142.637 246.939, 147.363 246.939, 150.250 246.737 C 153.137 246.535, 150.775 246.370, 145 246.370 C 139.225 246.370, 136.863 246.535, 139.750 246.737 M 363.750 246.723 C 365.538 246.945, 368.462 246.945, 370.250 246.723 C 372.038 246.502, 370.575 246.320, 367 246.320 C 363.425 246.320, 361.962 246.502, 363.750 246.723 M 276.750 248.723 C 278.538 248.945, 281.462 248.945, 283.250 248.723 C 285.038 248.502, 283.575 248.320, 280 248.320 C 276.425 248.320, 274.962 248.502, 276.750 248.723 M 334.264 248.718 C 335.784 248.947, 338.034 248.941, 339.264 248.704 C 340.494 248.467, 339.250 248.279, 336.500 248.286 C 333.750 248.294, 332.744 248.488, 334.264 248.718 M 134.292 266.742 C 138.027 266.935, 143.877 266.934, 147.292 266.739 C 150.706 266.545, 147.650 266.387, 140.500 266.389 C 133.350 266.390, 130.556 266.550, 134.292 266.742 M 203.750 266.740 C 207.188 266.936, 212.813 266.936, 216.250 266.740 C 219.688 266.545, 216.875 266.385, 210 266.385 C 203.125 266.385, 200.313 266.545, 203.750 266.740 M 304 270.081 C 302.826 270.903, 302.989 270.994, 304.750 270.498 C 306.964 269.875, 307 270.010, 307 278.887 L 307 287.909 313.750 288.258 L 320.500 288.608 313.750 288.804 L 307 289 307.231 313.750 L 307.463 338.500 307.749 314.250 L 308.036 290 314.518 290 C 319.613 290, 321 289.679, 321 288.500 C 321 287.321, 319.611 287, 314.500 287 L 308 287 308 278 C 308 268.757, 307.449 267.666, 304 270.081 M 291 279.445 L 291 286.890 286.250 287.195 C 280.109 287.589, 280.096 289.410, 286.232 289.804 L 290.963 290.108 291.260 313.055 L 291.557 336.001 291.528 312.751 L 291.500 289.500 286.500 289.060 L 281.500 288.620 286.500 288.060 L 291.500 287.500 291.793 280.312 C 292.076 273.355, 292.172 273.111, 294.793 272.712 C 297.260 272.336, 297.212 272.286, 294.250 272.150 L 291 272 291 279.445 M 136.445 304 C 136.445 321.325, 136.582 328.413, 136.748 319.750 C 136.915 311.087, 136.915 296.913, 136.748 288.250 C 136.582 279.587, 136.445 286.675, 136.445 304 M 215.448 305.500 C 215.447 323.650, 215.582 331.216, 215.748 322.314 C 215.913 313.411, 215.914 298.561, 215.749 289.314 C 215.583 280.066, 215.448 287.350, 215.448 305.500 M 139.071 274.500 C 139.071 275.050, 139.714 276.625, 140.500 278 C 141.286 279.375, 141.929 280.050, 141.929 279.500 C 141.929 278.950, 141.286 277.375, 140.500 276 C 139.714 274.625, 139.071 273.950, 139.071 274.500 M 196.867 276.750 C 196.665 277.712, 196.735 292.225, 197.022 309 L 197.544 339.500 197.772 307.250 C 197.897 289.512, 197.827 275, 197.617 275 C 197.406 275, 197.068 275.788, 196.867 276.750 M 350 288.732 C 351.375 288.985, 353.175 289.711, 354 290.346 C 355.305 291.350, 355.322 291.273, 354.128 289.750 C 353.371 288.785, 351.576 288.061, 350.128 288.136 L 347.500 288.272 350 288.732 M 331.437 293.250 L 328.500 296.500 331.750 293.563 C 334.779 290.825, 335.460 290, 334.687 290 C 334.515 290, 333.052 291.462, 331.437 293.250 M 246.086 293.618 C 247.414 295.333, 248.701 296.557, 248.947 296.338 C 249.193 296.119, 248.106 294.716, 246.533 293.220 L 243.672 290.500 246.086 293.618 M 259.328 301.500 C 259.333 305.350, 259.513 306.802, 259.730 304.728 C 259.946 302.653, 259.943 299.503, 259.722 297.728 C 259.501 295.952, 259.324 297.650, 259.328 301.500 M 275.422 319 C 275.422 330.275, 275.568 334.887, 275.746 329.250 C 275.924 323.613, 275.924 314.387, 275.746 308.750 C 275.568 303.113, 275.422 307.725, 275.422 319 M 357 303.500 L 357 308 349.070 308 C 341.640 308, 341.112 307.858, 340.706 305.750 C 340.334 303.821, 340.253 303.892, 340.136 306.250 L 340 309 349 309 L 358 309 358 304 C 358 301.250, 357.775 299, 357.500 299 C 357.225 299, 357 301.025, 357 303.500 M 371.232 305 C 371.232 306.925, 371.438 307.712, 371.689 306.750 C 371.941 305.788, 371.941 304.212, 371.689 303.250 C 371.438 302.288, 371.232 303.075, 371.232 305 M 235.314 306.250 C 236.370 307.219, 238.623 307.949, 240.361 307.885 C 243.460 307.771, 243.453 307.761, 239.802 307.051 C 237.769 306.655, 235.498 305.920, 234.755 305.416 C 234.013 304.912, 234.264 305.288, 235.314 306.250 M 340.406 311.386 C 340.113 312.148, 340.049 314.735, 340.262 317.136 C 340.648 321.471, 340.652 321.466, 340.825 316.275 L 341 311.051 356.750 310.748 L 372.500 310.445 356.719 310.223 C 344.040 310.044, 340.833 310.272, 340.406 311.386 M 257.500 313.124 C 256.022 314.855, 255.957 315.112, 257.250 314.110 C 258.893 312.838, 259 313.426, 259 323.678 C 259 330.938, 258.583 335.086, 257.757 336.050 C 256.964 336.975, 257.157 336.932, 258.290 335.931 C 259.836 334.565, 260.030 332.833, 259.783 322.573 L 259.500 310.783 257.500 313.124 M 323.300 317 C 323.300 320.025, 323.487 321.262, 323.716 319.750 C 323.945 318.238, 323.945 315.762, 323.716 314.250 C 323.487 312.738, 323.300 313.975, 323.300 317 M 249.879 318.900 C 247.470 321.045, 245.725 322.958, 246 323.150 C 246.275 323.343, 248.485 321.587, 250.912 319.250 C 256.443 313.922, 255.736 313.683, 249.879 318.900 M 176.015 316.679 C 176.044 318.211, 177.888 320.446, 178.565 319.769 C 178.935 319.398, 178.510 318.367, 177.619 317.476 C 176.729 316.586, 176.007 316.227, 176.015 316.679 M 232.510 322.990 C 230.935 324.634, 229.838 326.139, 230.073 326.334 C 230.308 326.529, 231.782 325.184, 233.348 323.344 C 236.886 319.191, 236.362 318.969, 232.510 322.990 M 342 327.723 C 342 328.303, 342.927 329.841, 344.059 331.139 L 346.119 333.500 344.362 330.500 C 342.050 326.552, 342 326.493, 342 327.723 M 229.286 332.500 C 229.294 335.250, 229.488 336.256, 229.718 334.736 C 229.947 333.216, 229.941 330.966, 229.704 329.736 C 229.467 328.506, 229.279 329.750, 229.286 332.500 M 366.662 331.750 L 363.825 335.500 366.898 332.250 C 370.521 328.419, 371.357 328.188, 370.520 331.250 C 369.987 333.200, 370.052 333.265, 371.006 331.742 C 372.068 330.048, 371.622 328, 370.191 328 C 369.811 328, 368.223 329.688, 366.662 331.750 M 139.272 333 C 139.272 335.475, 139.467 336.488, 139.706 335.250 C 139.944 334.012, 139.944 331.988, 139.706 330.750 C 139.467 329.512, 139.272 330.525, 139.272 333 M 366.186 338.027 C 364.363 340.222, 361.213 342.894, 359.186 343.965 C 357.159 345.036, 355.860 345.931, 356.300 345.956 C 356.739 345.980, 358.348 345.354, 359.875 344.565 C 363.239 342.825, 371.611 333.884, 369.750 334.018 C 369.613 334.028, 368.009 335.832, 366.186 338.027 M 257.405 339.143 C 256.357 340.322, 254.150 342.120, 252.500 343.139 C 250.850 344.159, 250.080 344.994, 250.789 344.996 C 252.038 345, 261.101 337.075, 259.905 337.025 C 259.578 337.011, 258.453 337.964, 257.405 339.143 M 230 338.899 C 230 339.827, 235.886 345.497, 236.258 344.927 C 236.411 344.692, 235.066 343.076, 233.268 341.336 C 231.471 339.595, 230 338.499, 230 338.899 M 312.500 340 L 309.500 340.763 312.191 340.882 C 313.671 340.947, 315.160 340.550, 315.500 340 C 315.840 339.450, 315.979 339.053, 315.809 339.118 C 315.639 339.183, 314.150 339.580, 312.500 340 M 188.667 342.667 C 188.300 343.033, 188.007 343.821, 188.015 344.417 C 188.026 345.150, 188.268 345.133, 188.765 344.366 C 189.169 343.742, 190.400 343.007, 191.500 342.732 C 193.435 342.248, 193.432 342.228, 191.417 342.116 C 190.271 342.052, 189.033 342.300, 188.667 342.667 M 135.250 344.728 C 137.313 344.944, 140.688 344.944, 142.750 344.728 C 144.813 344.513, 143.125 344.336, 139 344.336 C 134.875 344.336, 133.188 344.513, 135.250 344.728 M 200.789 344.741 C 204.248 344.937, 209.648 344.936, 212.789 344.738 C 215.930 344.540, 213.100 344.380, 206.500 344.382 C 199.900 344.384, 197.330 344.546, 200.789 344.741 M 240.768 345.725 C 242.565 345.947, 245.265 345.943, 246.768 345.715 C 248.271 345.486, 246.800 345.304, 243.500 345.310 C 240.200 345.315, 238.971 345.502, 240.768 345.725 M 268.250 345.716 C 269.762 345.945, 272.238 345.945, 273.750 345.716 C 275.262 345.487, 274.025 345.300, 271 345.300 C 267.975 345.300, 266.738 345.487, 268.250 345.716 M 303.750 346.706 C 304.988 346.944, 307.012 346.944, 308.250 346.706 C 309.488 346.467, 308.475 346.272, 306 346.272 C 303.525 346.272, 302.512 346.467, 303.750 346.706 M 346.250 346.716 C 347.762 346.945, 350.238 346.945, 351.750 346.716 C 353.262 346.487, 352.025 346.300, 349 346.300 C 345.975 346.300, 344.738 346.487, 346.250 346.716" stroke="none" fill="#d96868" fill-rule="evenodd"/><path d="M 359 161.154 C 355.425 161.649, 350.813 161.811, 348.750 161.515 C 344.288 160.874, 343.938 161.889, 347.855 164.116 C 349.712 165.173, 350.922 166.862, 351.348 168.991 C 351.980 172.149, 352.293 192, 351.711 192 C 351.553 192, 349.658 191.100, 347.500 190 C 337.271 184.785, 323.448 190.299, 317.416 202 C 315.120 206.454, 314.256 223.099, 315.932 230.588 C 318.525 242.174, 326.906 248.609, 338.325 247.783 C 343.961 247.375, 344.621 247.058, 348.183 243.044 L 352 238.743 352 243.201 L 352 247.658 358.750 246.751 C 362.462 246.252, 367.413 245.995, 369.750 246.179 C 374.733 246.572, 375.025 246.090, 371.145 243.884 C 369.288 242.827, 368.078 241.138, 367.652 239.009 C 367.293 237.216, 367 218.706, 367 197.875 C 367 177.044, 366.663 160.057, 366.250 160.127 C 365.837 160.197, 362.575 160.659, 359 161.154 M 127 169.043 C 127 169.342, 128.456 170.017, 130.236 170.543 C 135.768 172.179, 135.969 173.460, 135.985 207.101 C 136.002 241.592, 135.705 243.590, 130.412 244.582 C 123.189 245.938, 127.698 246.501, 146 246.531 C 164.605 246.561, 169.475 245.898, 160.515 244.555 C 153.497 243.502, 153 242.161, 153 224.277 L 153 209 157.484 209 C 162.976 209, 167.403 212.505, 169.437 218.465 C 170.181 220.646, 171.190 222.563, 171.680 222.727 C 172.175 222.892, 172.554 216.148, 172.535 207.517 C 172.509 195.800, 172.195 192.009, 171.250 192.005 C 170.563 192.002, 170 192.693, 170 193.540 C 170 195.796, 166.533 202.211, 164.147 204.368 C 163.011 205.396, 160.038 206.467, 157.541 206.748 L 153 207.260 153 190.252 C 153 171.122, 153.011 171.091, 160.261 170.274 C 171.162 169.045, 178.514 174.298, 182.012 185.815 C 183.213 189.767, 184.601 193, 185.097 193 C 185.594 193, 186 187.488, 185.999 180.750 L 185.999 168.500 156.499 168.500 C 140.274 168.500, 126.999 168.744, 127 169.043 M 205.849 188.619 C 201.732 190.328, 201.033 191.975, 201.015 200 L 201.004 205.500 206.252 199.775 C 209.138 196.626, 213.455 192.464, 215.845 190.525 L 220.189 187 214.845 187.052 C 211.905 187.080, 207.857 187.785, 205.849 188.619 M 219.492 192.877 C 213.619 197.560, 205.172 206.309, 202.282 210.701 C 201.014 212.629, 201.027 213.836, 202.383 220.397 C 203.983 228.134, 209.205 242.791, 211.771 246.750 C 213.576 249.534, 218.716 249.744, 227.146 247.379 C 237.560 244.457, 244.353 236.343, 246.963 223.705 C 249.507 211.393, 243.712 197.360, 233.716 191.626 C 226.662 187.580, 226.069 187.632, 219.492 192.877 M 273.500 188.672 C 265.001 190.542, 259.454 194.776, 256.177 201.893 C 253.993 206.636, 253.588 208.964, 253.547 217 C 253.492 228.160, 255.067 234.412, 259.197 239.423 C 263.636 244.808, 269.164 247.252, 278.119 247.787 C 296.717 248.898, 305.966 240.091, 306.825 220.450 C 307.364 208.135, 305.344 201.081, 299.649 195.386 C 293.707 189.444, 282.763 186.634, 273.500 188.672 M 274.643 193.250 C 270.215 199.103, 268.286 213.387, 269.968 227.873 C 271.599 241.918, 276.517 248.760, 282.831 245.766 C 288.538 243.059, 291.635 230.326, 290.681 213.500 C 290.011 201.692, 288.831 197.141, 285.373 193.031 C 281.847 188.841, 277.918 188.921, 274.643 193.250 M 337.011 193.835 C 335.451 195.395, 333.461 199.077, 332.588 202.017 C 330.482 209.107, 330.445 227.768, 332.522 234.764 C 334.954 242.953, 341.272 246.299, 346.883 242.369 C 351.308 239.270, 352.001 235.521, 351.985 214.782 C 351.976 204.177, 351.639 195.005, 351.235 194.400 C 348.444 190.220, 340.925 189.922, 337.011 193.835 M 193.673 196.940 C 188.967 202.150, 187.439 205.282, 185.975 212.723 C 184.739 219.006, 185.160 222.637, 186.993 221.504 C 187.547 221.162, 188 221.321, 188 221.858 C 188 222.394, 187.469 223.010, 186.820 223.227 C 186.082 223.473, 185.926 224.347, 186.404 225.560 C 187.052 227.207, 187.555 226.745, 189.727 222.500 C 191.135 219.750, 193.289 216.150, 194.515 214.500 C 196.305 212.090, 196.854 209.681, 197.307 202.250 C 197.617 197.162, 197.727 193, 197.551 193 C 197.376 193, 195.631 194.773, 193.673 196.940 M 202.667 197.667 C 201.516 198.817, 201.938 200, 203.500 200 C 204.325 200, 205 199.325, 205 198.500 C 205 196.938, 203.817 196.516, 202.667 197.667 M 216.922 203.274 C 209.544 208.245, 206.929 217.109, 210.394 225.400 C 211.724 228.584, 217.577 234, 219.687 234 C 221.138 234, 221.355 221.133, 219.933 219.419 C 218.963 218.251, 219.253 218, 221.578 218 C 223.773 218, 224.133 218.267, 223.200 219.200 C 222.486 219.914, 222 223.356, 222 227.700 L 222 235 225.500 235 C 228.737 235, 229 234.770, 229 231.941 C 229 230.156, 229.417 229.139, 230 229.500 C 230.550 229.840, 231 230.991, 231 232.059 C 231 234.744, 233.270 234.485, 236.959 231.381 C 241.343 227.692, 243 223.939, 243 217.698 C 243 207.834, 236.042 201, 226 201 C 221.723 201, 219.452 201.569, 216.922 203.274 M 192 210 C 192 211.111, 192.667 212, 193.500 212 C 194.333 212, 195 211.111, 195 210 C 195 208.889, 194.333 208, 193.500 208 C 192.667 208, 192 208.889, 192 210 M 227.406 212.519 C 226.743 215.162, 228.612 221, 230.121 221 C 230.605 221, 231.033 220.662, 231.074 220.250 C 231.115 219.838, 231.358 218.375, 231.613 217 C 232.699 211.153, 228.793 206.993, 227.406 212.519 M 196.369 219.579 C 195.264 221.186, 193.138 224.631, 191.646 227.235 C 189.109 231.664, 189.029 232.155, 190.416 234.837 C 191.231 236.413, 193.546 239.150, 195.560 240.919 C 199.298 244.200, 207.598 248.735, 208.400 247.933 C 208.644 247.689, 207.288 244.264, 205.386 240.322 C 203.484 236.380, 201.129 229.443, 200.153 224.907 L 198.379 216.659 196.369 219.579 M 140.500 266.965 C 130.489 267.377, 128.372 267.685, 131.295 268.304 C 134.094 268.897, 135.354 269.802, 136.096 271.753 C 136.718 273.389, 136.987 286.561, 136.801 306.287 L 136.500 338.176 133.694 340.588 C 132.151 341.915, 130.239 343, 129.444 343 C 128.650 343, 128 343.337, 128 343.750 C 128 344.163, 132.950 344.500, 139 344.500 C 145.050 344.500, 150 344.242, 150 343.926 C 150 343.611, 148.356 342.936, 146.346 342.426 C 144.336 341.917, 141.854 340.371, 140.831 338.992 C 139.096 336.653, 138.989 334.370, 139.235 305.048 L 139.500 273.613 154.441 309.306 C 162.658 328.938, 169.679 345, 170.042 345 C 170.406 345, 176.732 329.230, 184.101 309.956 L 197.500 274.912 197.764 306.496 C 197.933 326.691, 197.658 338.770, 197.002 339.996 C 196.438 341.051, 194.406 342.208, 192.488 342.568 C 185.296 343.918, 189.521 344.500, 206.500 344.500 C 223.522 344.500, 227.705 343.918, 220.455 342.557 C 217.922 342.082, 216.637 341.175, 215.955 339.381 C 214.704 336.092, 214.704 274.908, 215.955 271.619 C 216.636 269.827, 217.922 268.918, 220.446 268.444 C 227.160 267.185, 223.156 266.501, 210.837 266.804 L 198.478 267.107 188.489 293.543 C 182.995 308.082, 178.273 319.983, 177.995 319.989 C 177.717 319.995, 172.520 307.992, 166.445 293.317 C 160.370 278.641, 154.972 266.587, 154.450 266.532 C 153.927 266.476, 147.650 266.671, 140.500 266.965 M 301 271.550 C 298.525 272.259, 295.507 272.875, 294.294 272.920 C 292.258 272.994, 292.065 273.558, 291.794 280.250 L 291.500 287.500 286.500 288.060 L 281.500 288.620 286.500 289.060 L 291.500 289.500 292 314 C 292.547 340.825, 292.738 341.699, 298.642 344.500 C 302.677 346.415, 310.274 346.427, 313.953 344.524 C 316.853 343.025, 321.701 336.368, 320.655 335.322 C 320.340 335.007, 318.899 336.155, 317.452 337.874 C 314.550 341.323, 311.074 341.932, 308.571 339.429 C 307.229 338.086, 307 334.307, 307 313.474 L 307 289.091 313.750 288.742 L 320.500 288.392 313.750 288.196 L 307 288 307 279 C 307 274.050, 306.663 270.059, 306.250 270.131 C 305.837 270.202, 303.475 270.841, 301 271.550 M 245.718 287.028 C 236.730 289.296, 232.727 293.034, 232.727 299.160 C 232.727 304.203, 235.500 307, 240.500 307 C 244.636 307, 247.820 304.401, 248.593 300.394 C 249.082 297.858, 248.616 296.632, 246.047 293.706 C 243.018 290.257, 242.975 290.084, 244.885 289.062 C 247.602 287.608, 254.129 287.781, 256.211 289.363 C 258.772 291.309, 260 295.441, 260 302.111 C 260 309.447, 258.125 311.714, 249.437 314.880 C 238.852 318.737, 235.952 320.290, 232.951 323.709 C 230.439 326.569, 230 327.898, 230 332.635 C 230 337.631, 230.348 338.548, 233.400 341.600 C 236.531 344.731, 237.287 345, 242.966 345 C 249.842 345, 252.021 344.160, 256.750 339.684 C 259.328 337.243, 260 336.968, 260 338.349 C 260 339.307, 261.105 341.195, 262.455 342.545 C 264.474 344.565, 265.898 345, 270.487 345 C 276.478 345, 283.538 342.679, 282.526 341.041 C 282.126 340.395, 281.194 340.476, 279.893 341.270 C 278.192 342.309, 277.654 342.198, 276.439 340.559 C 275.297 339.018, 275 334.379, 274.998 318.059 C 274.997 295.029, 274.349 292.213, 268.245 288.689 C 264.432 286.488, 251.605 285.542, 245.718 287.028 M 341 287.954 C 329.316 291.967, 323.251 303.508, 324.202 319.924 C 325.150 336.302, 333.067 345.111, 347.494 345.840 C 353.256 346.131, 355.477 345.797, 358.686 344.160 C 363.108 341.904, 368.607 336.164, 370.095 332.250 C 371.512 328.523, 370.430 328.336, 367.513 331.803 C 363.733 336.295, 357.003 338.617, 352.060 337.136 C 344.443 334.854, 339.306 324.968, 340.187 314.289 L 340.500 310.500 356.183 310.225 L 371.866 309.950 371.331 306.225 C 370.206 298.388, 368.804 294.871, 365.478 291.545 C 359.753 285.819, 350.969 284.531, 341 287.954 M 346.369 289.440 C 343.727 291.308, 341.461 296.858, 340.525 303.750 L 339.812 309 349.051 309 L 358.290 309 357.698 301.932 C 356.737 290.479, 352.113 285.380, 346.369 289.440 M 253.500 315.892 C 246.540 321.419, 245.035 323.885, 245.015 329.795 C 245.004 333.035, 245.603 334.694, 247.455 336.545 C 250.424 339.515, 252.474 339.618, 256.750 337.011 L 260 335.029 260 323.015 C 260 316.407, 259.887 311.029, 259.750 311.064 C 259.613 311.098, 256.800 313.271, 253.500 315.892" stroke="none" fill="#bc0505" fill-rule="evenodd"/></svg>